<svg xmlns="http://www.w3.org/2000/svg" version="1.0" preserveAspectRatio="xMidYMid meet" viewBox="184.04 66.24 261.29 195.1">    <defs>        <linearGradient id="logoGradient" x1="0%" y1="0%" x2="100%" y2="100%">            <stop offset="0%" stop-color="#60abe4"></stop>            <stop offset="100%" stop-color="#2b6cb0"></stop>        </linearGradient>    </defs>    <g transform="translate(0.000000,327.000000) scale(0.066667,-0.066667)" fill="url(#logoGradient)" stroke="none">        <path d="M4275 3891 c-159 -34 -331 -130 -455 -254 -107 -107 -108 -107 -207 -117 -409 -42 -724 -317 -819 -715 -31 -129 -47 -1477 -19 -1588 60 -238 356 -308 529 -126 57 60 71 120 71 311 0 343 66 518 195 518 119 0 153 -82 165 -405 6 -144 16 -276 23 -292 137 -331 711 -304 765 36 19 121 21 125 56 115 151 -42 387 -42 545 0 28 7 33 0 41 -60 34 -246 287 -386 552 -307 118 36 237 179 238 287 0 40 3 41 81 41 688 0 896 1001 270 1301 l-88 42 -12 102 c-44 396 -394 694 -804 684 l-129 -3 -55 75 c-216 291 -587 431 -943 355z m463 -195 c163 -62 267 -150 385 -327 58 -89 62 -91 120 -87 255 18 327 12 430 -37 234 -111 371 -327 372 -586 0 -102 17 -124 111 -146 198 -46 358 -267 358 -495 0 -303 -211 -505 -536 -513 -173 -4 -188 -14 -188 -124 0 -174 -132 -262 -318 -210 -90 25 -132 88 -132 201 0 211 -30 242 -182 189 -150 -52 -377 -59 -538 -16 -187 49 -185 49 -217 25 -24 -17 -30 -46 -37 -155 -14 -224 -115 -301 -319 -244 -111 30 -126 68 -137 346 -18 421 -106 568 -342 568 -238 0 -339 -172 -356 -605 l-9 -253 -43 -36 c-63 -54 -185 -36 -211 32 -21 55 -9 1436 13 1541 72 339 345 565 715 591 l135 10 66 86 c202 263 550 362 860 245z"></path>        <path d="M4138 3406 c-145 -56 -325 -212 -327 -282 -3 -93 104 -95 197 -4 371 361 796 31 622 -484 -123 -360 -355 -476 -578 -290 -77 64 -126 69 -162 15 -81 -124 227 -308 442 -264 468 97 689 882 338 1203 -142 129 -361 173 -532 106z"></path>        <path d="M3367 2723 c-86 -85 -9 -247 108 -228 102 17 151 111 104 201 -39 77 -149 90 -212 27z"></path>    </g></svg>